<?xml version="1.0"?>
<svg xmlns="http://www.w3.org/2000/svg" xmlns:xlink="http://www.w3.org/1999/xlink" version="1.1" id="Capa_1" x="0px" y="0px" viewBox="0 0 39.38 39.38" style="enable-background:new 0 0 39.38 39.38;" xml:space="preserve" width="512px" height="512px" class=""><g><g>
	<path d="M36.826,31.666L19.077,14.084l-3.262-8.818c-0.067-0.181-0.216-0.322-0.397-0.378L6.096,1.941   c-0.27-0.086-0.578,0.032-0.723,0.271c-0.149,0.25-0.11,0.565,0.096,0.768l8.265,8.178L9.331,15.61L1.065,7.432   C0.869,7.239,0.544,7.199,0.306,7.341C0.06,7.485-0.055,7.779,0.026,8.054l2.751,9.334c0.057,0.194,0.206,0.35,0.399,0.415   l9.162,3.099l17.747,17.575c0.118,0.116,0.272,0.18,0.421,0.18c0.001,0,0.002,0,0.003,0c0.02,0.003,0.04,0.004,0.059,0.004   c0.144,0,0.278-0.063,0.4-0.188l5.862-5.922C37.072,32.304,37.069,31.908,36.826,31.666z M30.52,37.149L13.114,19.91   c-0.071-0.068-0.152-0.117-0.238-0.146l-8.991-3.042l-1.973-6.694l6.985,6.91c0.12,0.118,0.25,0.148,0.444,0.181   c0.166-0.003,0.322-0.068,0.44-0.186l5.281-5.34c0.118-0.119,0.183-0.277,0.181-0.444c-0.001-0.167-0.067-0.323-0.186-0.44   L8.189,3.911l6.561,2.075l3.204,8.662c0.033,0.088,0.082,0.165,0.146,0.227l17.403,17.24L30.52,37.149z" data-original="#010002" class="active-path" data-old_color="#010002" fill="#929090"/>
	<path d="M28.047,32.586c0.119,0.116,0.274,0.181,0.439,0.181c0.167,0,0.325-0.065,0.444-0.186l1.817-1.835   c0.118-0.118,0.182-0.274,0.182-0.443c-0.001-0.166-0.067-0.323-0.186-0.441l-2.599-2.57c-0.114-0.113-0.266-0.178-0.403-0.178   c-0.003,0-0.006,0-0.009,0c-0.157-0.031-0.317,0.025-0.472,0.183l-1.816,1.836c-0.118,0.119-0.182,0.276-0.181,0.443   s0.067,0.323,0.186,0.44L28.047,32.586z M27.71,28.619l1.71,1.691l-0.938,0.947l-1.709-1.691L27.71,28.619z" data-original="#010002" class="active-path" data-old_color="#010002" fill="#929090"/>
	<path d="M39.357,5.697l-1.078-3.854c-0.064-0.23-0.258-0.406-0.493-0.447l-3.76-0.668   c-0.207-0.036-0.409,0.032-0.549,0.173l-10.62,10.617c-0.118,0.118-0.183,0.275-0.183,0.442s0.065,0.324,0.183,0.442l0.971,0.971   l-1.411,1.393c-0.12,0.117-0.188,0.28-0.187,0.447s0.07,0.329,0.189,0.446l1.893,1.834c0.117,0.113,0.271,0.176,0.435,0.176   c0.167,0,0.324-0.065,0.442-0.183l1.377-1.377l0.973,0.973c0.118,0.117,0.275,0.183,0.442,0.183s0.324-0.065,0.442-0.184   L39.197,6.307C39.356,6.149,39.418,5.914,39.357,5.697z M24.738,16.167l-0.991-0.962l0.962-0.95l0.829,0.829l0.142,0.142   L24.738,16.167z M27.979,15.756l-3.797-3.796l9.948-9.943l3.05,0.541l0.874,3.123L27.979,15.756z" data-original="#010002" class="active-path" data-old_color="#010002" fill="#929090"/>
	<path d="M4.115,38.288c0.165,0,0.32-0.064,0.439-0.181l11.248-11.09c0.12-0.12,0.186-0.279,0.186-0.449   c-0.001-0.166-0.07-0.329-0.191-0.446l-1.961-1.896c-0.236-0.229-0.642-0.229-0.876,0.008L1.823,35.371   c-0.118,0.118-0.183,0.275-0.183,0.442s0.065,0.324,0.183,0.442l1.85,1.85C3.791,38.223,3.948,38.288,4.115,38.288z M13.409,25.552   l1.058,1.024L4.118,36.783l-0.969-0.969L13.409,25.552z" data-original="#010002" class="active-path" data-old_color="#010002" fill="#929090"/>
</g></g> </svg>
