<!DOCTYPE svg PUBLIC "-//W3C//DTD SVG 20010904//EN" "http://www.w3.org/TR/2001/REC-SVG-20010904/DTD/svg10.dtd">
<svg version="1.0" xmlns="http://www.w3.org/2000/svg" width="165px" height="165px" viewBox="0 0 1650 1650" preserveAspectRatio="xMidYMid meet">
<g id="layer101" fill="#ab5b58" stroke="none">
 <path d="M745 1360 c-191 -30 -366 -121 -416 -216 -13 -24 -26 -33 -55 -39 -67 -12 -74 -24 -74 -140 0 -116 5 -125 78 -144 39 -11 45 -17 76 -79 19 -38 52 -91 74 -118 36 -46 41 -58 47 -130 11 -113 16 -124 57 -115 18 5 65 20 104 34 52 18 79 23 105 18 l34 -7 1 -60 c2 -98 56 -171 150 -201 45 -14 58 -14 100 -3 57 16 108 59 135 113 16 30 20 54 17 104 l-3 63 51 30 c99 56 174 174 201 313 12 65 13 100 4 189 -15 156 -25 183 -85 231 -68 53 -219 124 -303 142 -92 19 -225 26 -298 15z"/>
 </g>
<g id="layer102" fill="#e68076" stroke="none">
 <path d="M745 1360 c-191 -30 -366 -121 -416 -216 -13 -24 -26 -33 -55 -39 -67 -12 -74 -24 -74 -140 0 -116 5 -125 78 -144 39 -11 45 -17 76 -79 19 -38 52 -91 74 -118 36 -46 41 -58 47 -130 11 -113 16 -124 57 -115 18 5 65 20 104 34 52 18 79 23 105 18 l34 -7 1 -60 c2 -98 56 -171 150 -201 45 -14 58 -14 100 -3 57 16 108 59 135 113 16 30 20 54 17 104 l-3 63 51 30 c99 56 174 174 201 313 12 65 13 100 4 189 -15 156 -25 183 -85 231 -68 53 -219 124 -303 142 -92 19 -225 26 -298 15z m-145 -570 c38 -38 15 -90 -39 -90 -34 0 -51 17 -51 51 0 54 52 77 90 39z m607 -216 c3 -9 0 -20 -8 -25 -18 -13 -112 -6 -171 11 -41 12 -55 12 -95 0 -75 -22 -147 -24 -162 -6 -27 32 -3 36 215 36 188 0 215 -2 221 -16z"/>
 </g>
<g id="layer103" fill="#efc936" stroke="none">
 <path d="M910 557 c-79 -25 -149 -145 -134 -227 15 -80 71 -142 150 -167 200 -63 342 202 187 349 -56 53 -127 69 -203 45z"/>
 </g>

</svg>